<svg width="24" height="24" viewBox="0 0 24 24" fill="none" xmlns="http://www.w3.org/2000/svg">
<path d="M12 2C14.5665 2 16.9326 2.36056 18.6924 2.97266C19.5676 3.27707 20.3472 3.66225 20.9277 4.13965C21.5013 4.61137 22 5.27906 22 6.13086C21.9999 6.53454 21.8449 6.93357 21.7607 7.13379C21.7098 7.25492 21.6595 7.35995 21.6221 7.43457C21.6032 7.4722 21.5872 7.50378 21.5752 7.52637C21.5692 7.53764 21.5634 7.54663 21.5596 7.55371L21.5547 7.56348L21.5537 7.56641L21.5518 7.56836C21.5437 7.58291 21.5351 7.59723 21.5264 7.61133L13.2725 20.8486C12.6852 21.7902 11.3148 21.7902 10.7275 20.8486L2.47559 7.61523L2.47363 7.61133L2.46973 7.60547C2.46492 7.59777 2.45917 7.58782 2.45215 7.57617C2.43814 7.55297 2.41948 7.52211 2.39844 7.48438C2.35679 7.40982 2.30226 7.30519 2.24707 7.18066C2.14682 6.95429 2.00009 6.564 2 6.13086C2 5.27906 2.49865 4.61137 3.07227 4.13965C3.65281 3.66225 4.43246 3.27706 5.30762 2.97266C7.06741 2.36056 9.43351 2 12 2ZM12 4C9.5961 4 7.46238 4.34049 5.96484 4.86133C5.21145 5.12338 4.67308 5.41299 4.34277 5.68457C4.00555 5.96192 4 6.11821 4 6.13086C4.00025 6.13461 4.00199 6.15871 4.01465 6.20508C4.02835 6.2552 4.04958 6.31226 4.0752 6.37012C4.08099 6.38317 4.08702 6.39609 4.09277 6.4082C4.72261 6.84465 6.00086 7.46698 7.14551 7.74023C8.50648 8.06516 10.1794 8.26074 12 8.26074C13.8206 8.26074 15.4935 8.06516 16.8545 7.74023C17.9891 7.46934 19.2551 6.85567 19.8906 6.41992C19.8994 6.40037 19.9081 6.3795 19.917 6.3584C19.947 6.28692 19.9717 6.22018 19.9873 6.16504C19.9936 6.14272 19.9972 6.12704 19.999 6.11816C19.9929 6.07461 19.95 5.92532 19.6572 5.68457C19.3269 5.41298 18.7886 5.12338 18.0352 4.86133C16.5376 4.34049 14.4039 4 12 4Z" fill="#121417"/>
</svg>
